<?xml version="1.0" standalone="no"?>
<!DOCTYPE svg PUBLIC "-//W3C//DTD SVG 20010904//EN"
 "http://www.w3.org/TR/2001/REC-SVG-20010904/DTD/svg10.dtd">
<svg version="1.0" xmlns="http://www.w3.org/2000/svg"
 width="625.000000pt" height="625.000000pt" viewBox="0 0 625.000000 625.000000"
 preserveAspectRatio="xMidYMid meet">
<metadata>
Created by potrace 1.11, written by Peter Selinger 2001-2013
</metadata>
<g transform="translate(0.000000,625.000000) scale(0.100000,-0.100000)"
fill="#000000" stroke="none">
<path d="M2950 5997 c-3 -3 -37 -7 -75 -11 -289 -27 -635 -153 -900 -329 -166
-111 -337 -265 -454 -412 -31 -38 -59 -72 -62 -75 -3 -3 -34 -48 -68 -100 -70
-106 -174 -311 -210 -410 -69 -195 -119 -425 -125 -578 -1 -29 -13 -40 -111
-114 -404 -302 -688 -750 -789 -1244 -72 -353 -50 -727 63 -1073 43 -132 138
-333 202 -429 16 -24 29 -45 29 -48 0 -24 209 -272 313 -370 83 -79 274 -230
306 -242 9 -3 31 -16 49 -28 56 -38 226 -122 313 -155 166 -62 344 -107 501
-126 79 -10 434 -10 508 0 222 30 466 102 624 183 l48 25 102 -44 c210 -93
390 -141 648 -172 66 -8 310 -8 383 0 275 29 504 94 740 212 489 244 868 683
1038 1203 41 123 80 293 91 395 20 175 16 432 -9 564 -1 9 -6 36 -10 61 -45
281 -189 612 -377 865 -105 141 -283 320 -423 423 -79 59 -110 87 -111 104
-32 429 -185 823 -449 1153 -140 176 -364 372 -545 479 -100 60 -311 156 -412
190 -105 34 -288 78 -378 91 -54 7 -444 18 -450 12z m390 -398 c19 -5 73 -15
120 -24 207 -40 436 -139 626 -270 118 -82 314 -275 395 -390 82 -116 150
-239 196 -356 45 -113 95 -287 84 -293 -4 -3 -51 9 -106 25 -91 27 -245 61
-340 74 -89 13 -403 13 -505 0 -210 -27 -391 -76 -575 -157 -124 -54 -116 -54
-192 -18 -76 36 -207 86 -262 100 -20 5 -70 18 -111 29 -220 59 -547 73 -810
35 -68 -10 -260 -55 -316 -74 -32 -11 -60 -20 -64 -20 -4 0 -1 28 7 63 43 186
146 416 261 577 66 93 245 283 330 351 132 104 356 225 502 272 99 32 176 50
300 71 82 14 404 17 460 5z m-920 -1628 c134 -22 263 -53 289 -70 12 -8 8 -15
-20 -38 -127 -104 -318 -336 -416 -503 -118 -202 -214 -454 -248 -650 -3 -19
-8 -36 -10 -38 -8 -8 -139 128 -226 235 -169 207 -309 551 -335 820 -3 32 -7
63 -9 70 -2 6 2 16 8 20 33 25 275 113 352 128 60 12 201 34 235 37 68 7 316
-1 380 -11z m1865 0 c27 -6 69 -13 93 -16 69 -10 229 -59 328 -101 84 -35 91
-40 88 -64 -49 -375 -149 -630 -349 -890 -52 -68 -213 -236 -219 -229 -2 2
-11 39 -20 82 -43 194 -152 463 -256 632 -82 133 -184 261 -310 387 l-126 127
75 20 c118 32 222 52 313 59 107 10 319 5 383 -7z m-1098 -317 c81 -58 265
-239 326 -320 113 -150 200 -314 263 -494 24 -70 69 -285 77 -371 l4 -47 -56
-25 c-137 -62 -334 -115 -499 -135 -40 -5 -137 -8 -215 -6 -236 3 -469 55
-647 142 l-55 27 3 45 c9 140 61 342 128 500 84 196 198 363 354 521 77 77
233 208 249 209 2 0 33 -21 68 -46z m-2100 -115 c2 -12 14 -66 28 -120 116
-457 396 -872 777 -1152 91 -67 98 -75 99 -107 0 -19 2 -44 4 -55 2 -11 8 -58
15 -105 62 -444 304 -905 630 -1202 44 -39 80 -74 80 -78 0 -11 -217 -65 -317
-78 -32 -4 -141 -7 -243 -6 -150 0 -206 5 -293 22 -353 73 -631 223 -882 477
-156 158 -282 347 -360 544 -146 368 -160 776 -39 1146 60 186 134 329 255
490 67 91 228 259 238 250 2 -3 6 -15 8 -26z m4174 -67 c113 -118 118 -124
191 -233 186 -278 278 -584 279 -924 1 -329 -88 -645 -253 -896 -83 -127 -96
-145 -166 -222 -146 -163 -294 -279 -482 -376 -194 -100 -350 -148 -585 -181
-179 -26 -546 11 -703 71 -24 9 -23 11 69 102 117 116 150 152 225 252 212
282 366 658 400 980 4 33 8 67 10 75 1 8 3 29 3 45 1 26 15 40 103 105 116 86
297 260 384 370 79 100 114 148 114 154 0 3 14 25 30 50 79 116 217 440 244
569 3 12 7 31 10 42 20 87 23 105 18 110 -3 3 -1 5 5 5 5 0 52 -44 104 -98z
m-2552 -1567 c173 -34 271 -43 441 -40 152 3 278 16 395 41 39 8 79 17 90 19
11 3 59 18 107 33 l86 29 -4 -26 c-23 -124 -65 -246 -134 -386 -119 -244 -266
-425 -478 -592 l-84 -66 -31 18 c-83 48 -284 236 -357 334 -14 18 -34 45 -46
59 -105 132 -235 426 -278 629 l-7 31 86 -29 c48 -16 144 -40 214 -54z"/>
</g>
</svg>
